<?xml version="1.0" encoding="utf-8"?>
<!-- Generator: Adobe Illustrator 16.2.1, SVG Export Plug-In . SVG Version: 6.00 Build 0)  -->
<!DOCTYPE svg PUBLIC "-//W3C//DTD SVG 1.1//EN" "http://www.w3.org/Graphics/SVG/1.1/DTD/svg11.dtd">
<svg version="1.1" id="Layer_1" xmlns="http://www.w3.org/2000/svg" xmlns:xlink="http://www.w3.org/1999/xlink" x="0px" y="0px"
	 width="385.332px" height="90.917px" viewBox="0 0 385.332 90.917" enable-background="new 0 0 385.332 90.917"
	 xml:space="preserve">
<g>
	<g>
		<path fill="#968C83" d="M41.924,25.328v22.616c-4.473,2.722-11.794,4.212-17.366,4.212C9.007,52.156,0,41.076,0,28.051
			C0,14.443,9.913,3.947,23.909,3.947c8.424,0,13.542,2.268,17.106,5.959l-4.405,4.731c-3.759-3.629-8.101-4.859-12.701-4.859
			c-10.497,0-17.301,8.229-17.301,18.272c0,10.369,7.711,18.271,17.819,18.271c4.342,0,8.488-0.842,11.274-2.395V31.161H25.528
			v-5.833H41.924z"/>
		<path fill="#968C83" d="M63.37,19.497c9.136,0,16.328,7.192,16.328,16.136c0,8.941-7.192,16.135-16.328,16.135
			c-9.137,0-16.329-7.193-16.329-16.135C47.041,26.689,54.233,19.497,63.37,19.497z M63.37,46.322
			c6.22,0,10.107-4.468,10.107-10.689c0-6.223-3.888-10.692-10.107-10.692c-6.222,0-10.108,4.47-10.108,10.692
			C53.262,41.854,57.148,46.322,63.37,46.322z"/>
		<path fill="#968C83" d="M100.029,19.497c9.136,0,16.328,7.192,16.328,16.136c0,8.941-7.192,16.135-16.328,16.135
			c-9.137,0-16.329-7.193-16.329-16.135C83.7,26.689,90.893,19.497,100.029,19.497z M100.029,46.322
			c6.221,0,10.107-4.468,10.107-10.689c0-6.223-3.887-10.692-10.107-10.692s-10.108,4.47-10.108,10.692
			C89.921,41.854,93.809,46.322,100.029,46.322z"/>
		<path fill="#968C83" d="M152.627,50.99h-5.831v-4.406h-0.129c-2.268,3.303-6.545,5.184-10.691,5.184
			c-9.525,0-15.617-7.064-15.617-16.135c0-9.203,6.156-16.136,15.617-16.136c4.405,0,8.618,2.011,10.691,5.185h0.129V8.654h5.831
			V50.99z M146.796,35.633c0-6.223-3.889-10.692-10.107-10.692c-6.221,0-10.109,4.47-10.109,10.692
			c0,6.222,3.889,10.689,10.109,10.689C142.907,46.322,146.796,41.854,146.796,35.633z"/>
		<path fill="#968C83" d="M162.461,41.4c2.202,3.369,6.025,4.922,9.72,4.922c4.082,0,9.135-2.59,9.135-7.645
			c0-10.561-22.614-4.018-22.614-21.901c0-5.38,4.536-12.829,15.552-12.829c4.99,0,9.784,1.037,13.219,5.248l-5.054,4.6
			c-1.556-2.398-4.601-4.017-8.165-4.017c-6.867,0-8.941,4.146-8.941,6.998c0,11.599,22.614,4.665,22.614,21.188
			c0,8.877-7.128,14.191-15.939,14.191c-5.897,0-11.534-2.011-14.646-6.351L162.461,41.4z"/>
		<path fill="#968C83" d="M207.021,25.328h-8.358v13.934c0,3.433,0,7.061,4.406,7.061c1.361,0,2.98-0.193,4.147-0.906v5.315
			c-1.361,0.776-4.082,1.036-5.249,1.036c-9.006,0-9.136-5.509-9.136-10.434V11.656h5.831v8.619h8.358V25.328z"/>
		<path fill="#968C83" d="M212.837,24.035c3.24-3.047,7.905-4.538,12.183-4.538c9.071,0,12.828,4.926,12.828,10.238v15.681
			c0,2.139,0.066,3.953,0.261,5.574h-5.186c-0.129-1.555-0.193-3.111-0.193-4.668h-0.129c-2.594,3.953-6.092,5.445-10.758,5.445
			c-5.7,0-10.626-3.24-10.626-9.203c0-7.904,7.581-10.625,16.912-10.625h4.277v-1.296c0-3.177-2.333-6.48-7.323-6.48
			c-4.471,0-6.609,1.878-8.748,3.499L212.837,24.035z M229.297,36.215c-5.511,0-12.249,0.972-12.249,5.896
			c0,3.5,2.592,4.99,6.609,4.99c6.482,0,8.749-4.795,8.749-8.942v-1.944H229.297z"/>
		<path fill="#968C83" d="M244.176,20.275h5.831v4.729h0.131c1.49-3.241,5.377-5.508,9.201-5.508c0.906,0,1.813,0.131,2.591,0.39
			l-0.26,6.284c-0.971-0.259-1.94-0.452-2.849-0.452c-5.703,0-8.814,3.109-8.814,9.848V50.99h-5.831V20.275z"/>
		<path fill="#968C83" d="M280.618,25.328h-8.361v13.934c0,3.433,0,7.061,4.406,7.061c1.361,0,2.98-0.193,4.147-0.906v5.315
			c-1.361,0.776-4.082,1.036-5.249,1.036c-9.006,0-9.136-5.509-9.136-10.434V11.656h5.831v8.619h8.361V25.328z"/>
		<path fill="#968C83" d="M152.646,70.893v13.53c-2.676,1.63-7.057,2.522-10.391,2.522c-9.304,0-14.694-6.631-14.694-14.424
			c0-8.142,5.932-14.424,14.307-14.424c5.04,0,8.103,1.357,10.235,3.566l-2.636,2.832c-2.25-2.17-4.848-2.908-7.6-2.908
			c-6.281,0-10.352,4.924-10.352,10.934c0,6.203,4.613,10.935,10.661,10.935c2.598,0,5.078-0.505,6.747-1.436v-7.64h-6.088v-3.488
			H152.646z"/>
		<path fill="#968C83" d="M161.832,78.336c0,3.219,2.987,5.351,6.204,5.351c2.133,0,3.683-1.085,5.04-2.753l2.637,2.018
			c-1.938,2.52-4.614,3.76-8.142,3.76c-5.816,0-9.461-4.188-9.461-9.654c0-5.505,3.994-9.652,9.5-9.652
			c6.475,0,8.956,4.963,8.956,9.691v1.24H161.832z M172.845,75.546c-0.078-3.063-1.785-5.352-5.312-5.352
			c-3.45,0-5.7,2.907-5.7,5.352H172.845z"/>
		<path fill="#968C83" d="M181.411,67.87h3.488v2.829h0.078c0.892-1.939,3.219-3.295,6.048-3.295c3.567,0,6.667,2.132,6.667,7.016
			v11.826h-3.488V75.39c0-3.451-1.978-4.729-4.188-4.729c-2.907,0-5.117,1.861-5.117,6.126v9.46h-3.488V67.87z"/>
		<path fill="#968C83" d="M206.263,78.336c0,3.219,2.984,5.351,6.201,5.351c2.133,0,3.684-1.085,5.041-2.753l2.637,2.018
			c-1.941,2.52-4.614,3.76-8.143,3.76c-5.814,0-9.461-4.188-9.461-9.654c0-5.505,3.995-9.652,9.5-9.652
			c6.474,0,8.957,4.963,8.957,9.691v1.24H206.263z M217.272,75.546c-0.078-3.063-1.784-5.352-5.312-5.352
			c-3.449,0-5.697,2.907-5.697,5.352H217.272z"/>
		<path fill="#968C83" d="M234.135,70.893h-5.003v8.335c0,2.056,0,4.229,2.637,4.229c0.814,0,1.783-0.117,2.483-0.546v3.18
			c-0.814,0.467-2.442,0.621-3.142,0.621c-5.388,0-5.469-3.295-5.469-6.243V62.711h3.49v5.159h5.003V70.893z"/>
		<path fill="#968C83" d="M240.53,59.495c1.396,0,2.559,1.163,2.559,2.56c0,1.395-1.162,2.557-2.559,2.557s-2.559-1.162-2.559-2.557
			C237.972,60.658,239.134,59.495,240.53,59.495z M238.784,67.87h3.491v18.376h-3.491V67.87z"/>
		<path fill="#968C83" d="M260.845,72.756c-1.28-1.359-2.637-2.057-4.576-2.057c-3.798,0-5.738,3.062-5.738,6.513
			s2.326,6.244,5.932,6.244c1.939,0,3.297-0.699,4.459-2.056l2.482,2.48c-1.821,2.017-4.305,2.83-6.98,2.83
			c-5.658,0-9.613-3.916-9.613-9.576c0-5.661,3.877-9.693,9.613-9.693c2.676,0,5.236,0.932,7.059,2.908L260.845,72.756z"/>
		<path fill="#968C83" d="M277.593,72.482c-0.815-1.009-2.017-1.822-3.761-1.822c-1.63,0-3.063,0.736-3.063,2.055
			c0,2.209,3.141,2.52,4.693,2.867c3.021,0.738,5.349,1.901,5.349,5.352c0,4.148-3.8,5.777-7.444,5.777
			c-3.024,0-5.273-0.775-7.097-3.255l2.637-2.173c1.126,1.125,2.444,2.173,4.46,2.173c1.784,0,3.721-0.739,3.721-2.329
			c0-2.092-2.907-2.48-4.418-2.83c-2.986-0.736-5.623-1.706-5.623-5.234c0-3.838,3.527-5.658,6.98-5.658
			c2.442,0,4.962,0.852,6.28,3.021L277.593,72.482z"/>
		<path fill="#F0B323" d="M306.855,30.465c1.319,2.08,2.812,3.997,4.466,5.754c1.647,1.764,3.273,3.336,4.87,4.723
			c2.915-1.27,5.7-2.762,8.538-4.16C348.14,25.243,340.973,0,321.152,0c-5.427,0-9.929,1.641-13.513,4.904
			c-3.573,3.275-5.364,7.54-5.364,12.834c0,2.133,0.439,4.268,1.285,6.416C304.431,26.291,305.541,28.393,306.855,30.465z"/>
		<path fill="#DB3EB1" d="M371.892,30.465c-1.32,2.08-2.813,3.997-4.465,5.754c-1.648,1.764-3.273,3.336-4.871,4.723
			c-2.914-1.27-5.7-2.762-8.538-4.16C330.608,25.243,337.773,0,357.595,0c5.428,0,9.929,1.641,13.514,4.904
			c3.572,3.275,5.361,7.54,5.361,12.834c0,2.133-0.438,4.268-1.284,6.416C374.316,26.291,373.207,28.393,371.892,30.465z"/>
	</g>
	<g>
		<path fill="#968C83" d="M379.144,51.313c-4.125-4.146-9.665-7.613-16.588-10.372l-23.184,22.925l-23.181-22.925
			c-6.924,2.759-12.466,6.226-16.585,10.372c-4.135,4.145-6.188,9.623-6.188,16.406c0,3.536,0.726,6.728,2.194,9.61
			c1.467,2.91,3.431,5.357,5.895,7.376c2.478,1.998,5.295,3.55,8.484,4.613c3.192,1.067,6.479,1.598,9.794,1.598
			c6.811,0,12.526-1.422,17.188-4.224c0.814-0.496,1.61-1.047,2.398-1.621c0.79,0.574,1.588,1.125,2.4,1.621
			c4.663,2.802,10.377,4.224,17.188,4.224c3.317,0,6.599-0.53,9.793-1.598c3.187-1.063,6.009-2.615,8.482-4.613
			c2.464-2.019,4.427-4.466,5.901-7.376c1.467-2.883,2.194-6.074,2.194-9.61C385.332,60.937,383.269,55.458,379.144,51.313z
			 M330.391,72.283c-0.905,0.994-1.905,1.934-2.998,2.798c-1.113,0.858-2.247,1.593-3.433,2.216
			c-1.189,0.609-2.391,1.016-3.648,1.195c-3.072,0.418-5.731-0.163-7.918-1.758c-2.205-1.603-3.53-3.815-3.963-6.645
			c-0.429-2.751,0.172-5.153,1.813-7.174c1.637-2.022,3.851-3.227,6.636-3.611c1.688-0.24,3.292-0.097,4.789,0.385
			c1.518,0.495,2.931,1.223,4.285,2.15c1.334,0.947,2.561,2.082,3.675,3.416c1.098,1.329,2.146,2.688,3.122,4.105
			C332.067,70.306,331.272,71.273,330.391,72.283z"/>
	</g>
</g>
</svg>
